<svg xmlns="http://www.w3.org/2000/svg" version="1.1" xmlns:xlink="http://www.w3.org/1999/xlink" xmlns:svgjs="http://svgjs.dev/svgjs" width="2000" height="585" viewBox="0 0 2000 585"><g transform="matrix(1,0,0,1,-1.2121212121212466,-0.015729941213123766)"><svg viewBox="0 0 396 116" data-background-color="#1ebbd7" preserveAspectRatio="xMidYMid meet" height="585" width="2000" xmlns="http://www.w3.org/2000/svg" xmlns:xlink="http://www.w3.org/1999/xlink"><g id="tight-bounds" transform="matrix(1,0,0,1,0.2400000000000091,0.003554467687536089)"><svg viewBox="0 0 395.52 115.99289106462498" height="115.99289106462498" width="395.52"><g><svg viewBox="0 0 610.2660670751974 178.97078640445613" height="115.99289106462498" width="395.52"><g transform="matrix(1,0,0,1,0,34.179216933854725)"><svg viewBox="0 0 395.52 110.61235253674668" height="110.61235253674668" width="395.52"><g id="textblocktransform"><svg viewBox="0 0 395.52 110.61235253674668" height="110.61235253674668" width="395.52" id="textblock"><g><svg viewBox="0 0 395.52 110.61235253674668" height="110.61235253674668" width="395.52"><g transform="matrix(1,0,0,1,0,0)"><svg width="395.52" viewBox="-1.2441699999999987 -34.188210000000005 159.66106526808989 44.65131" height="110.61235253674668" data-palette-color="#0b0c0d"><path d="M33.198 4.446l-26.823 6.017-1.602-2.664-0.121-5.015-5.896-26.287 24.716-5.544 2.722 0.896-1.342 8.869-4.42 0.489-8.977 2.014 0.86 3.834 11.856-2.659 1.777 7.923-6.625 1.486-5.34 0.686 1.003 4.469 13.289-2.981 7.063 4.759zM64.032 1.046l-25.374 2.733-1.29-2.828 0.448-4.997-2.885-26.785 10.757-1.159 2.006 18.623 0.235 6.753 0.974-0.105 8.707-1.43 3.416-0.871 5.064 6.676zM79.821 0.608l-10.865 0.307-0.761-26.94-0.628-4.894 0.407-2.963 10.865-0.306zM102.867 2.684v0c-2.846-0.203-5.445-0.643-7.795-1.319-2.351-0.676-4.361-1.732-6.03-3.168-1.675-1.436-2.912-3.349-3.71-5.739-0.798-2.39-1.068-5.4-0.809-9.03v0c0.257-3.598 0.977-6.52 2.16-8.769 1.177-2.249 2.686-3.965 4.529-5.15 1.842-1.178 3.896-1.951 6.161-2.317 2.259-0.367 4.598-0.464 7.018-0.291v0c1.603 0.115 3.066 0.303 4.391 0.565 1.331 0.262 2.526 0.561 3.585 0.897v0l6.397 4.347-4.049 8.393-10.607-4.066c-1.403-0.1-2.709 0.03-3.918 0.392-1.208 0.355-2.205 1.072-2.991 2.152-0.785 1.073-1.251 2.641-1.398 4.702v0c-0.224 3.139 0.297 5.388 1.563 6.749 1.267 1.354 3.144 2.119 5.63 2.297v0c0.951 0.068 1.74 0.067 2.367-0.001 0.627-0.076 1.159-0.178 1.596-0.307v0l0.193-2.704-4.26-0.304 0.553-7.74 15.591 1.114 0.328 2.981-1.438 4.97-0.736 10.304c-0.368 0.101-1.192 0.269-2.472 0.505-1.287 0.242-2.939 0.438-4.955 0.588-2.009 0.151-4.307 0.133-6.894-0.051zM136.86 7.744v0c-2.051-0.421-4.047-1.089-5.989-2.005-1.936-0.914-3.614-2.187-5.035-3.819-1.421-1.632-2.41-3.693-2.969-6.183-0.564-2.491-0.481-5.519 0.251-9.085v0c0.73-3.559 1.845-6.376 3.346-8.45 1.493-2.069 3.213-3.571 5.16-4.505 1.949-0.941 3.993-1.451 6.133-1.529 2.147-0.084 4.246 0.085 6.296 0.506v0c2.057 0.422 4.052 1.1 5.984 2.033 1.938 0.935 3.619 2.216 5.041 3.842 1.421 1.632 2.41 3.693 2.968 6.182 0.564 2.491 0.484 5.503-0.24 9.036v0c-0.725 3.533-1.837 6.333-3.336 8.401-1.493 2.069-3.214 3.574-5.163 4.515-1.949 0.941-3.998 1.457-6.146 1.547-2.143 0.098-4.244-0.064-6.301-0.486zM138.836-1.886v0c2.09 0.429 3.794 0.118 5.111-0.932 1.326-1.055 2.269-2.948 2.828-5.677v0c0.553-2.697 0.429-4.795-0.373-6.294-0.794-1.504-2.236-2.47-4.326-2.898v0c-4.173-0.856-6.8 1.348-7.879 6.612v0c-0.553 2.697-0.439 4.796 0.342 6.297 0.781 1.501 2.213 2.465 4.297 2.892z" opacity="1" transform="matrix(1,0,0,1,0,0)" fill="#ffffff" class="wordmark-text-0" data-fill-palette-color="primary" id="text-0"></path></svg></g></svg></g></svg></g></svg></g><g transform="matrix(1,0,0,1,428.1441660137004,0)"><svg viewBox="0 0 182.121901061497 178.97078640445613" height="178.97078640445613" width="182.121901061497"><g><svg xmlns="http://www.w3.org/2000/svg" xmlns:xlink="http://www.w3.org/1999/xlink" version="1.1" x="0" y="0" viewBox="1.0229491999999998 1.8703613 97.9541016 96.2592774" enable-background="new 0 0 100 100" xml:space="preserve" height="178.97078640445613" width="182.121901061497" class="icon-icon-0" data-fill-palette-color="accent" id="icon-0"><path d="M85.189 21.285c0-2.431 1.978-4.408 4.408-4.408s4.408 1.977 4.408 4.408-1.978 4.408-4.408 4.408S85.189 23.716 85.189 21.285zM90.833 25.814h-2.472c-2.757 0-5 2.243-5 5v0.665h12.472v-0.665C95.833 28.057 93.59 25.814 90.833 25.814zM81.026 37.432v12.445c0 0.552 0.447 1 1 1.001H97.168c0.553 0 1-0.448 1-1.001V37.432H81.026zM80.216 33.979v0.953c0 0.552 0.448 1 1 1h16.761c0.552 0 1-0.448 1-1v-0.953c0-0.552-0.448-1-1-1H81.216C80.664 32.979 80.216 33.426 80.216 33.979zM45.206 95.13h-2.668v-1.639c0-3.528-2.871-6.398-6.399-6.398h-3.976c-3.528 0-6.399 2.87-6.399 6.398v1.639h-3.799v-1.639c0-3.528-2.871-6.398-6.399-6.398h-3.976c-3.528 0-6.399 2.87-6.399 6.398v1.639H2.523c-0.829 0-1.5 0.672-1.5 1.5s0.671 1.5 1.5 1.5h42.683c0.829 0 1.5-0.672 1.5-1.5S46.034 95.13 45.206 95.13zM7.77 80.293c0 3.202 2.605 5.808 5.808 5.807 3.203 0 5.808-2.605 5.808-5.807s-2.605-5.808-5.808-5.808C10.375 74.485 7.77 77.091 7.77 80.293zM28.343 80.293c0 3.202 2.605 5.808 5.807 5.807 3.203 0 5.808-2.605 5.808-5.807s-2.605-5.808-5.808-5.808C30.948 74.485 28.343 77.091 28.343 80.293zM64.003 56.491c0-2.719-2.212-4.931-4.93-4.931s-4.931 2.212-4.931 4.931c0 2.72 2.212 4.932 4.931 4.932S64.003 59.211 64.003 56.491zM75.892 51.56c-2.719 0-4.931 2.212-4.931 4.931 0 2.72 2.212 4.932 4.931 4.932s4.931-2.212 4.931-4.932C80.823 53.772 78.611 51.56 75.892 51.56zM77.932 62.067h-4.079c-2.757 0-5 2.243-5 5v1.481h-2.741v-1.481c0-2.757-2.243-5-5-5h-4.079c-2.757 0-5 2.243-5 5v1.481h-1.999c-0.829 0-1.5 0.672-1.5 1.5s0.671 1.5 1.5 1.5h34.896c0.828 0 1.5-0.672 1.5-1.5s-0.672-1.5-1.5-1.5h-1.998v-1.481C82.932 64.31 80.689 62.067 77.932 62.067zM31.043 56.492c0 2.719 2.212 4.931 4.93 4.93s4.931-2.212 4.931-4.93c0-2.719-2.212-4.931-4.931-4.932S31.043 53.772 31.043 56.492zM19.153 61.422c2.719 0 4.931-2.212 4.931-4.93 0-2.719-2.212-4.931-4.931-4.932-2.719 0-4.931 2.212-4.931 4.932C14.222 59.21 16.434 61.422 19.153 61.422zM8.77 66.571h3.394c-0.017 0.166-0.05 0.327-0.05 0.496v1.481h-1.999c-0.829 0-1.5 0.672-1.5 1.5s0.671 1.5 1.5 1.5h34.896c0.829 0 1.5-0.672 1.5-1.5s-0.671-1.5-1.5-1.5h-1.999v-1.481c0-2.757-2.243-5-5-5h-4.078c-2.757 0-5 2.243-5 5v1.481h-2.741v-1.481c0-2.757-2.243-5-5-5l-10.173 0.004v-5.547c0-1.243-1.008-2.25-2.25-2.25-1.243 0-2.25 1.007-2.25 2.25v7.797C6.52 65.563 7.527 66.571 8.77 66.571zM55.088 80.293c0 3.202 2.605 5.808 5.807 5.807s5.808-2.605 5.808-5.807c0-3.203-2.605-5.808-5.808-5.808S55.088 77.09 55.088 80.293zM81.439 74.485c-3.229 0-5.854 2.626-5.854 5.854 0 3.228 2.625 5.854 5.854 5.854 3.228 0 5.854-2.626 5.853-5.854C87.292 77.111 84.666 74.485 81.439 74.485zM93.765 77.706c-1.475 0-2.671 1.196-2.671 2.671v6.585L79.017 86.958c-3.273 0-5.936 2.663-5.936 5.936v2.236h-3.799v-1.639c0-3.528-2.87-6.399-6.398-6.399h-3.977c-3.528 0-6.398 2.871-6.398 6.399v1.639H49.84c-0.829 0-1.5 0.672-1.5 1.5s0.671 1.5 1.5 1.5h42.683c0.828 0 1.5-0.672 1.5-1.5s-0.672-1.5-1.5-1.5H89.795V92.894c0-0.202-0.04-0.393-0.059-0.589h4.029c1.476 0 2.671-1.196 2.671-2.672v-9.256C96.436 78.902 95.241 77.706 93.765 77.706zM76.191 8.494v25.775c1.136 0.235 1.992 1.243 1.992 2.448v1.676c0 1.378-1.121 2.5-2.5 2.5H19.363c-1.378 0-2.5-1.122-2.5-2.5V36.717c0-1.205 0.857-2.213 1.992-2.448V8.494c-1.136-0.235-1.993-1.243-1.992-2.447V4.37c0-1.378 1.122-2.5 2.5-2.5h56.32c1.379 0 2.5 1.122 2.5 2.5v1.677C78.183 7.251 77.327 8.259 76.191 8.494zM73.191 6.709H21.855v29.346H73.191V6.709zM40.246 21.386c0-4.491 4.088-8.044 8.739-7.133 2.913 0.57 5.227 2.969 5.712 5.898 0.526 3.175-1.02 6.055-3.499 7.51-0.376 0.221-0.669 0.551-0.828 0.941-0.163 0.397-0.59 0.622-1.019 0.623l-3.651 0.001c-0.432 0-0.86-0.225-1.025-0.625-0.161-0.39-0.455-0.721-0.833-0.943C41.692 26.392 40.246 24.056 40.246 21.386zM49.702 17.097c1.329 0.679 2.302 1.94 2.605 3.374 0.06 0.282 0.309 0.476 0.586 0.477 0.041 0 0.083-0.004 0.125-0.014 0.324-0.068 0.531-0.387 0.463-0.711-0.376-1.784-1.585-3.353-3.233-4.194-0.295-0.152-0.656-0.033-0.807 0.261C49.29 16.585 49.407 16.947 49.702 17.097zM46.841 33.26h1.364c0.517 0 0.941-0.652 0.958-1.473h-3.28C45.9 32.608 46.324 33.26 46.841 33.26zM49.68 29.899h-4.314c-0.163 0-0.294 0.114-0.295 0.254v0.707c0 0.141 0.132 0.255 0.295 0.255h4.314c0.162 0 0.294-0.114 0.294-0.255v-0.707C49.974 30.013 49.842 29.899 49.68 29.899zM42.86 12.816c0.162 0.381 0.532 0.61 0.921 0.61 0.13 0 0.263-0.026 0.39-0.08 0.508-0.215 0.746-0.803 0.53-1.311l-0.836-1.97c-0.215-0.508-0.803-0.746-1.311-0.53-0.508 0.215-0.746 0.803-0.53 1.311L42.86 12.816zM36.577 17.782l1.998 0.767c0.118 0.045 0.239 0.067 0.359 0.067 0.402 0 0.781-0.245 0.933-0.642 0.198-0.516-0.06-1.094-0.575-1.292l-1.998-0.767c-0.512-0.199-1.093 0.059-1.292 0.575C35.804 17.006 36.062 17.584 36.577 17.782zM50.874 13.346c0.127 0.054 0.26 0.08 0.39 0.08 0.39 0 0.76-0.229 0.921-0.61l0.837-1.97c0.216-0.508-0.021-1.095-0.53-1.311-0.503-0.216-1.095 0.021-1.311 0.53l-0.837 1.97C50.128 12.543 50.366 13.13 50.874 13.346zM56.112 18.616c0.119 0 0.24-0.021 0.358-0.067l1.999-0.767c0.516-0.198 0.773-0.776 0.575-1.292-0.197-0.515-0.775-0.773-1.292-0.575l-1.999 0.767c-0.516 0.198-0.773 0.776-0.575 1.292C55.331 18.371 55.709 18.616 56.112 18.616z" fill="#ffffff" data-fill-palette-color="accent"></path></svg></g></svg></g></svg></g><defs></defs></svg><rect width="395.52" height="115.99289106462498" fill="none" stroke="none" visibility="hidden"></rect></g></svg></g></svg>