<svg width="248" height="224" viewBox="0 0 248 224" fill="none" xmlns="http://www.w3.org/2000/svg">
<g id="12177834_4898970 1" clip-path="url(#clip0_36_1254)">
<g id="OBJECTS">
<g id="Group">
<g id="Group_2">
<g id="Group_3">
<path id="Vector" d="M107.395 83.5149C107.17 74.9702 105.941 34.9244 105.924 34.9248C58.1835 36.6877 21.951 45.2924 21.951 55.6417C21.951 63.7424 44.5397 92.7724 76.6944 86.6607V85.6312C86.1512 84.6089 96.483 83.8845 107.395 83.5149Z" fill="#B5A392"/>
</g>
<path id="Vector_2" opacity="0.15" d="M76.6948 86.6608V85.6313C85.9765 84.6277 96.1049 83.9132 106.793 83.5378C106.387 70.0789 105.934 55.4562 105.924 55.4567C70.6262 56.7599 41.6245 61.8039 28.9017 68.5275C37.9509 79.1075 55.1805 90.7497 76.6948 86.6608Z" fill="#2D2D30"/>
<g id="Group_4">
<path id="Vector_3" d="M93.3399 59.8193H65.7959C65.1755 59.8193 64.6724 59.3162 64.6724 58.6957V24.2602C64.6724 23.6397 65.1755 23.1366 65.7959 23.1366H93.3399C93.9604 23.1366 94.4635 23.6397 94.4635 24.2602V58.6957C94.4635 59.3162 93.9604 59.8193 93.3399 59.8193Z" fill="#111111"/>
<g id="Group_5">
<path id="Vector_4" d="M85.9909 33.0585V27.4003C82.8661 27.4003 80.3326 29.9337 80.3326 33.0585C80.3326 36.1833 82.8661 38.7167 85.9909 38.7167C89.1157 38.7167 91.6491 36.1833 91.6491 33.0585H85.9909Z" fill="#F6EEE3"/>
<path id="Vector_5" d="M91.8968 31.5393C91.8968 28.8692 89.7321 26.7045 87.062 26.7045V31.5393H91.8968Z" fill="#EB8D2E"/>
</g>
<path id="Vector_6" d="M77.491 28.9176H68.4092C68.2855 28.9176 68.1852 28.8173 68.1852 28.6936C68.1852 28.57 68.2855 28.4696 68.4092 28.4696H77.491C77.6147 28.4696 77.715 28.57 77.715 28.6936C77.715 28.8177 77.6147 28.9176 77.491 28.9176Z" fill="#F6EEE3"/>
<path id="Vector_7" d="M87.3555 54.4244H79.7771C79.6535 54.4244 79.5531 54.3241 79.5531 54.2004C79.5531 54.0768 79.6535 53.9764 79.7771 53.9764H87.3555C87.4791 53.9764 87.5795 54.0768 87.5795 54.2004C87.5795 54.3241 87.4791 54.4244 87.3555 54.4244Z" fill="#F6EEE3"/>
<path id="Vector_8" d="M76.5538 34.4714H68.4092C68.2855 34.4714 68.1852 34.3711 68.1852 34.2474C68.1852 34.1238 68.2855 34.0234 68.4092 34.0234H76.5538C76.6775 34.0234 76.7778 34.1238 76.7778 34.2474C76.7778 34.3711 76.6775 34.4714 76.5538 34.4714Z" fill="#F6EEE3"/>
<path id="Vector_9" d="M78.8184 38.9407H68.4087C68.285 38.9407 68.1847 38.8403 68.1847 38.7167C68.1847 38.593 68.285 38.4927 68.4087 38.4927H78.8184C78.9421 38.4927 79.0424 38.593 79.0424 38.7167C79.0424 38.8408 78.9425 38.9407 78.8184 38.9407Z" fill="#F6EEE3"/>
<path id="Vector_10" d="M87.3555 43.4547H68.4092C68.2855 43.4547 68.1852 43.3544 68.1852 43.2307C68.1852 43.1071 68.2855 43.0067 68.4092 43.0067H87.3555C87.4792 43.0067 87.5795 43.1071 87.5795 43.2307C87.5795 43.3544 87.4792 43.4547 87.3555 43.4547Z" fill="#F6EEE3"/>
<path id="Vector_11" d="M87.3555 48.3339H68.4092C68.2855 48.3339 68.1852 48.2335 68.1852 48.1099C68.1852 47.9862 68.2855 47.8859 68.4092 47.8859H87.3555C87.4792 47.8859 87.5795 47.9862 87.5795 48.1099C87.5795 48.2335 87.4792 48.3339 87.3555 48.3339Z" fill="#F6EEE3"/>
</g>
<g id="Group_6">
<g id="Group_7">
<path id="Vector_12" d="M49.121 80.0514C48.944 80.0514 48.7675 79.982 48.6358 79.8444C48.3791 79.5765 48.388 79.1509 48.6559 78.8942L69.9444 58.4909C70.1263 58.3167 70.3718 58.2316 70.6245 58.2566C70.8749 58.2822 71.1007 58.4152 71.2436 58.6218L75.7075 65.0828L92.2692 43.8154C92.4605 43.5699 92.7683 43.448 93.076 43.4941C93.3825 43.5407 93.6405 43.7504 93.7494 44.0407L96.5494 51.5021L112.296 32.1508C112.53 31.8632 112.953 31.8197 113.241 32.0536C113.529 32.2879 113.572 32.7112 113.338 32.9988L97.0574 53.007C96.8634 53.2449 96.5574 53.3618 96.2528 53.3121C95.9504 53.2623 95.6955 53.0531 95.5884 52.766L92.796 45.3256L76.3607 66.4304C76.1931 66.6454 75.9239 66.766 75.6596 66.761C75.3876 66.7534 75.1327 66.615 74.9782 66.391L70.4628 59.8556L49.586 79.8646C49.4556 79.9891 49.2881 80.0514 49.121 80.0514Z" fill="#5C69AB"/>
<path id="Vector_13" d="M113.165 37.8202C113.139 37.8202 113.111 37.8189 113.085 37.8153C112.716 37.7714 112.453 37.4367 112.497 37.068L113.083 32.175L108.34 33.7304C107.988 33.8456 107.607 33.6543 107.492 33.3013C107.377 32.9487 107.569 32.5692 107.921 32.4532L113.389 30.6603C113.669 30.5676 113.972 30.6249 114.2 30.8117C114.428 30.9985 114.543 31.2848 114.508 31.5774L113.832 37.2275C113.791 37.5694 113.501 37.8202 113.165 37.8202Z" fill="#5C69AB"/>
</g>
</g>
<g id="Group_8">
<g id="Group_9">
<path id="Vector_14" d="M72.963 66.0648H54.8123C54.1291 66.0648 53.575 65.511 53.575 64.8274V48.9816C53.575 48.2984 54.1287 47.7443 54.8123 47.7443H72.963C73.6462 47.7443 74.2004 48.298 74.2004 48.9816V64.8274C74.2 65.511 73.6462 66.0648 72.963 66.0648Z" fill="#5C69AB"/>
<path id="Vector_15" d="M72.963 66.2888H54.8123C54.0068 66.2888 53.351 65.6334 53.351 64.8279V48.9821C53.351 48.1766 54.0064 47.5208 54.8123 47.5208H72.963C73.7686 47.5208 74.4244 48.1762 74.4244 48.9821V64.8279C74.424 65.6334 73.7686 66.2888 72.963 66.2888ZM54.8123 47.9688C54.2537 47.9688 53.799 48.4235 53.799 48.9821V64.8279C53.799 65.3865 54.2537 65.8408 54.8123 65.8408H72.963C73.5217 65.8408 73.9764 65.3865 73.9764 64.8279V48.9821C73.9764 48.4235 73.5217 47.9688 72.963 47.9688H54.8123Z" fill="#5C69AB"/>
</g>
<g id="Group_10">
<path id="Vector_16" d="M69.8706 61.0786H58.0747C57.6997 61.0786 57.396 60.7748 57.396 60.3998V52.442C57.396 52.0675 57.6997 51.7633 58.0747 51.7633H69.8706C70.2451 51.7633 70.5493 52.067 70.5493 52.442V60.3998C70.5488 60.7748 70.2451 61.0786 69.8706 61.0786Z" fill="#F6EEE3"/>
<path id="Vector_17" d="M57.3964 61.6296C57.3323 61.6296 57.2687 61.6023 57.2244 61.5494C57.1451 61.4549 57.1576 61.3133 57.2526 61.234L63.6594 55.8719C63.7414 55.8033 63.8601 55.8016 63.9439 55.8692L70.5206 61.169C70.6169 61.2465 70.6321 61.3877 70.5542 61.484C70.4771 61.5799 70.336 61.596 70.2392 61.5176L63.8059 56.3333L57.5402 61.5772C57.4981 61.6126 57.4466 61.6296 57.3964 61.6296Z" fill="#5C69AB"/>
<g id="Group_11">
<path id="Vector_18" d="M57.3959 51.9726L62.3382 55.9065C63.2441 56.6273 64.5285 56.6242 65.4308 55.8989L70.3794 51.9202" fill="#F6EEE3"/>
<path id="Vector_19" d="M63.8798 56.6729C63.2871 56.6729 62.6944 56.4758 62.1989 56.0816L57.2566 52.1477C57.1598 52.0706 57.1442 51.93 57.2208 51.8327C57.2974 51.736 57.438 51.7199 57.5357 51.7974L62.478 55.7312C63.3073 56.392 64.4645 56.3885 65.2906 55.7241L70.2387 51.7454C70.3351 51.6679 70.4762 51.6831 70.5537 51.7794C70.6312 51.8758 70.616 52.0169 70.5196 52.0944L65.5715 56.0731C65.0738 56.4731 64.477 56.6729 63.8798 56.6729Z" fill="#5C69AB"/>
</g>
</g>
</g>
</g>
<g id="Group_12">
<g id="Group_13">
<path id="Vector_20" d="M226.049 55.6418C226.049 46.7548 199.33 39.154 161.549 36.0678C161.396 36.0552 161.31 71.5933 161.32 82.309C172.422 83.2072 182.572 84.4952 191.382 86.0905C212.469 80.779 226.049 61.9223 226.049 55.6418Z" fill="#B5A392"/>
<path id="Vector_21" opacity="0.15" d="M217.885 69.8922C207.214 64.7411 186.866 60.646 161.549 58.578C161.461 58.5708 161.396 70.299 161.357 82.3121C172.444 83.2104 182.582 84.497 191.382 86.0906C202.688 83.2426 211.831 76.5016 217.885 69.8922Z" fill="#2D2D30"/>
</g>
<g id="Group_14">
<path id="Vector_22" d="M191.36 68.6082H175.307C174.686 68.6082 174.183 68.1051 174.183 67.4846V51.431C174.183 50.8105 174.686 50.3074 175.307 50.3074H191.36C191.981 50.3074 192.484 50.8105 192.484 51.431V67.4846C192.484 68.1055 191.981 68.6082 191.36 68.6082Z" fill="#111111"/>
<g id="Group_15">
<path id="Vector_23" d="M184.062 64.7272C183.951 64.7272 183.846 64.6846 183.765 64.6062C183.679 64.5238 183.63 64.4091 183.63 64.2908V59.09H178.419C178.304 59.09 178.192 59.0425 178.112 58.9592C178.031 58.8754 177.989 58.7665 177.993 58.6514C178.051 57.0292 178.791 55.489 180.022 54.4259C181.269 53.3484 182.866 52.8561 184.52 53.0384C187.214 53.3359 189.384 55.5064 189.681 58.1998C189.864 59.8511 189.373 61.4474 188.297 62.6941C187.236 63.9248 185.698 64.6658 184.078 64.7267C184.073 64.7272 184.067 64.7272 184.062 64.7272ZM183.854 58.6424H184.078V64.2913C185.558 64.2227 186.979 63.5382 187.958 62.4016C188.951 61.2502 189.405 59.7754 189.236 58.2486C188.962 55.7622 186.958 53.7583 184.472 53.4837C182.944 53.3144 181.468 53.7695 180.315 54.765C179.178 55.747 178.495 57.1694 178.441 58.6675L183.854 58.6424Z" fill="#F6EEE3"/>
<path id="Vector_24" d="M182.543 66.2293C182.537 66.2293 182.531 66.2293 182.525 66.2289C179.274 66.0963 176.624 63.4468 176.492 60.197C176.486 60.0707 176.533 59.9502 176.621 59.8579C176.71 59.7651 176.834 59.7123 176.962 59.7123H182.542C182.8 59.7123 183.009 59.9215 183.009 60.1791V65.7594C183.009 65.8866 182.956 66.0107 182.864 66.0994C182.776 66.1832 182.663 66.2293 182.543 66.2293ZM176.962 60.1598L176.94 60.1786C177.063 63.1973 179.524 65.6581 182.542 65.7813L182.561 60.1786L176.962 60.1598Z" fill="#EB8D2E"/>
</g>
</g>
<g id="Group_16">
<g id="Group_17">
<path id="Vector_25" d="M216.903 54.1029H191.183C190.499 54.1029 189.945 53.5492 189.945 52.8655V29.5063C189.945 28.8231 190.499 28.2694 191.183 28.2694H216.903C217.586 28.2694 218.14 28.8231 218.14 29.5063V52.866C218.14 53.5492 217.586 54.1029 216.903 54.1029Z" fill="#5C69AB"/>
<path id="Vector_26" d="M216.903 54.3273H191.183C190.377 54.3273 189.721 53.6719 189.721 52.8659V29.5063C189.721 28.7008 190.377 28.0449 191.183 28.0449H216.903C217.709 28.0449 218.364 28.7003 218.364 29.5063V52.8659C218.364 53.6714 217.709 54.3273 216.903 54.3273ZM191.183 28.4934C190.624 28.4934 190.169 28.9481 190.169 29.5067V52.8664C190.169 53.425 190.624 53.8797 191.183 53.8797H216.903C217.461 53.8797 217.916 53.425 217.916 52.8664V29.5063C217.916 28.9476 217.461 28.4929 216.903 28.4929H191.183V28.4934Z" fill="#5C69AB"/>
</g>
<g id="Group_18">
<path id="Vector_27" d="M204.042 49.4329C208.597 49.4329 212.289 45.7407 212.289 41.1861C212.289 36.6315 208.597 32.9393 204.042 32.9393C199.488 32.9393 195.796 36.6315 195.796 41.1861C195.796 45.7407 199.488 49.4329 204.042 49.4329Z" fill="#F6EEE3"/>
<path id="Vector_28" d="M206.879 41.4102H203.819V36.5892C203.819 36.4656 203.919 36.3652 204.043 36.3652C204.166 36.3652 204.267 36.4656 204.267 36.5892V40.9622H206.879C207.002 40.9622 207.103 41.0625 207.103 41.1862C207.103 41.3103 207.002 41.4102 206.879 41.4102Z" fill="#5C69AB"/>
</g>
</g>
<g id="Group_19">
<path id="Vector_29" d="M164.653 63.8481C167.836 63.8481 170.417 61.2675 170.417 58.0842C170.417 54.9008 167.836 52.3202 164.653 52.3202C161.47 52.3202 158.889 54.9008 158.889 58.0842C158.889 61.2675 161.47 63.8481 164.653 63.8481Z" fill="#EB8D2E"/>
<path id="Vector_30" d="M164.536 59.7144C164.396 59.7144 164.257 59.6615 164.15 59.5553L162.093 57.4981C162.006 57.4108 162.006 57.2688 162.093 57.1814C162.18 57.094 162.322 57.094 162.41 57.1814L164.467 59.2386C164.505 59.2767 164.568 59.2771 164.606 59.2382L169.994 53.8501C170.082 53.7627 170.224 53.7627 170.311 53.8501C170.398 53.9374 170.398 54.0794 170.311 54.1668L164.923 59.5553C164.816 59.6611 164.677 59.7144 164.536 59.7144Z" fill="#111111"/>
</g>
<g id="Group_20">
<path id="Vector_31" d="M166.232 26.8084C165.362 26.8084 164.653 27.5172 164.653 28.3876V39.1992C164.653 40.0697 165.362 40.778 166.232 40.778H169.118C170.361 40.778 171.373 41.79 171.373 43.0336V45.5993C171.373 46.0756 171.737 46.2637 171.848 46.3094C171.958 46.3551 172.349 46.4801 172.686 46.1432L177.39 41.4388C177.809 41.019 178.391 40.778 178.985 40.778H184.772C185.643 40.778 186.351 40.0697 186.351 39.1992V28.3872C186.351 27.5167 185.643 26.808 184.772 26.808L166.232 26.8084Z" fill="#EB8D2E"/>
<g id="Group_21">
<path id="Vector_32" d="M170.661 35.751C169.825 35.751 169.143 35.07 169.143 34.2332C169.143 33.3963 169.824 32.7153 170.661 32.7153C171.498 32.7153 172.179 33.3963 172.179 34.2332C172.179 35.07 171.498 35.751 170.661 35.751ZM170.661 33.1633C170.071 33.1633 169.591 33.6431 169.591 34.2332C169.591 34.8232 170.071 35.303 170.661 35.303C171.251 35.303 171.731 34.8232 171.731 34.2332C171.731 33.6436 171.251 33.1633 170.661 33.1633Z" fill="#111111"/>
<path id="Vector_33" d="M175.478 35.751C174.641 35.751 173.959 35.07 173.959 34.2332C173.959 33.3963 174.64 32.7153 175.478 32.7153C176.314 32.7153 176.995 33.3963 176.995 34.2332C176.995 35.07 176.314 35.751 175.478 35.751ZM175.478 33.1633C174.887 33.1633 174.407 33.6431 174.407 34.2332C174.407 34.8232 174.887 35.303 175.478 35.303C176.067 35.303 176.547 34.8232 176.547 34.2332C176.547 33.6436 176.068 33.1633 175.478 33.1633Z" fill="#111111"/>
<path id="Vector_34" d="M180.239 35.751C179.402 35.751 178.721 35.07 178.721 34.2332C178.721 33.3963 179.402 32.7153 180.239 32.7153C181.076 32.7153 181.757 33.3963 181.757 34.2332C181.757 35.07 181.076 35.751 180.239 35.751ZM180.239 33.1633C179.649 33.1633 179.169 33.6431 179.169 34.2332C179.169 34.8232 179.649 35.303 180.239 35.303C180.829 35.303 181.309 34.8232 181.309 34.2332C181.309 33.6436 180.829 33.1633 180.239 33.1633Z" fill="#111111"/>
</g>
</g>
<g id="Group_22">
<path id="Vector_35" d="M41.8212 37.116C41.3158 37.116 40.905 37.5269 40.905 38.0318V44.3015C40.905 44.8064 41.3158 45.2172 41.8212 45.2172H45.1767C45.5212 45.2172 45.8581 45.357 46.1014 45.6003L48.8293 48.3281C49.0246 48.5235 49.2513 48.4509 49.3149 48.4245C49.3794 48.398 49.5904 48.2887 49.5904 48.0128V46.5249C49.5904 45.8037 50.1773 45.2168 50.8986 45.2168H52.5718C53.0767 45.2168 53.4876 44.806 53.4876 44.3011V38.0313C53.4876 37.5264 53.0767 37.1156 52.5718 37.1156L41.8212 37.116Z" fill="#EB8D2E"/>
<g id="Group_23">
<path id="Vector_36" d="M50.0035 42.3957C49.4663 42.3957 49.0291 41.9585 49.0291 41.4213C49.0291 40.8841 49.4663 40.4469 50.0035 40.4469C50.5406 40.4469 50.9779 40.8841 50.9779 41.4213C50.9779 41.9589 50.5406 42.3957 50.0035 42.3957ZM50.0035 40.8953C49.7132 40.8953 49.4771 41.1314 49.4771 41.4217C49.4771 41.7121 49.7132 41.9481 50.0035 41.9481C50.2938 41.9481 50.5299 41.7121 50.5299 41.4217C50.5299 41.1314 50.2938 40.8953 50.0035 40.8953Z" fill="#111111"/>
<path id="Vector_37" d="M47.2106 42.3957C46.6735 42.3957 46.2362 41.9585 46.2362 41.4213C46.2362 40.8841 46.6735 40.4469 47.2106 40.4469C47.7478 40.4469 48.185 40.8841 48.185 41.4213C48.185 41.9589 47.7478 42.3957 47.2106 42.3957ZM47.2106 40.8953C46.9203 40.8953 46.6842 41.1314 46.6842 41.4217C46.6842 41.7121 46.9203 41.9481 47.2106 41.9481C47.5009 41.9481 47.737 41.7121 47.737 41.4217C47.737 41.1314 47.5009 40.8953 47.2106 40.8953Z" fill="#111111"/>
<path id="Vector_38" d="M44.4496 42.3957C43.9125 42.3957 43.4752 41.9585 43.4752 41.4213C43.4752 40.8841 43.9125 40.4469 44.4496 40.4469C44.9868 40.4469 45.424 40.8841 45.424 41.4213C45.4236 41.9589 44.9868 42.3957 44.4496 42.3957ZM44.4496 40.8953C44.1593 40.8953 43.9232 41.1314 43.9232 41.4217C43.9232 41.7121 44.1593 41.9481 44.4496 41.9481C44.7399 41.9481 44.976 41.7121 44.976 41.4217C44.9756 41.1314 44.7399 40.8953 44.4496 40.8953Z" fill="#111111"/>
</g>
</g>
</g>
<g id="Group_24">
<path id="Vector_39" d="M109.298 13.923C109.298 14.6147 108.738 15.1756 108.046 15.1756C107.354 15.1756 106.793 14.6147 106.793 13.923C106.793 13.2313 107.354 12.6704 108.046 12.6704C108.738 12.6704 109.298 13.2309 109.298 13.923Z" fill="#EB8D2E"/>
<path id="Vector_40" d="M21.6961 135.258C22.3879 135.258 22.9487 134.698 22.9487 134.006C22.9487 133.314 22.3879 132.753 21.6961 132.753C21.0043 132.753 20.4435 133.314 20.4435 134.006C20.4435 134.698 21.0043 135.258 21.6961 135.258Z" fill="#EB8D2E"/>
<path id="Vector_41" d="M197.998 138.062C197.998 138.754 197.437 139.315 196.745 139.315C196.054 139.315 195.493 138.754 195.493 138.062C195.493 137.371 196.054 136.81 196.745 136.81C197.437 136.81 197.998 137.371 197.998 138.062Z" fill="#EB8D2E"/>
<path id="Vector_42" d="M227.302 16.4283C227.302 17.12 226.741 17.6809 226.049 17.6809C225.357 17.6809 224.796 17.12 224.796 16.4283C224.796 15.7366 225.357 15.1757 226.049 15.1757C226.741 15.1757 227.302 15.7366 227.302 16.4283Z" fill="#EB8D2E"/>
<g id="Group_25">
<path id="Vector_43" d="M232.977 46.9962C232.977 47.342 232.696 47.6225 232.351 47.6225C232.005 47.6225 231.724 47.342 231.724 46.9962C231.724 46.6503 232.005 46.3699 232.351 46.3699C232.696 46.3699 232.977 46.6503 232.977 46.9962Z" fill="#5C69AB"/>
<path id="Vector_44" d="M232.351 47.8465C231.881 47.8465 231.5 47.4648 231.5 46.9962C231.5 46.5276 231.882 46.1459 232.351 46.1459C232.819 46.1459 233.201 46.5276 233.201 46.9962C233.201 47.4648 232.819 47.8465 232.351 47.8465ZM232.351 46.5939C232.129 46.5939 231.948 46.7744 231.948 46.9962C231.948 47.2179 232.129 47.3985 232.351 47.3985C232.572 47.3985 232.753 47.2179 232.753 46.9962C232.753 46.7744 232.573 46.5939 232.351 46.5939Z" fill="#5C69AB"/>
</g>
<g id="Group_26">
<path id="Vector_45" d="M58.8846 138.689C58.8846 139.035 58.6041 139.315 58.2583 139.315C57.9124 139.315 57.632 139.035 57.632 138.689C57.632 138.343 57.9124 138.062 58.2583 138.062C58.6041 138.063 58.8846 138.343 58.8846 138.689Z" fill="#5C69AB"/>
<path id="Vector_46" d="M58.2582 139.54C57.7892 139.54 57.4075 139.158 57.4075 138.689C57.4075 138.221 57.7892 137.839 58.2582 137.839C58.7268 137.839 59.1085 138.221 59.1085 138.689C59.1085 139.158 58.7273 139.54 58.2582 139.54ZM58.2582 138.287C58.036 138.287 57.8555 138.467 57.8555 138.689C57.8555 138.911 58.036 139.091 58.2582 139.091C58.48 139.091 58.6605 138.911 58.6605 138.689C58.6605 138.467 58.48 138.287 58.2582 138.287Z" fill="#5C69AB"/>
</g>
<g id="Group_27">
<path id="Vector_47" d="M17.3223 30.5021C17.9339 30.5021 18.4298 30.0063 18.4298 29.3947C18.4298 28.7831 17.9339 28.2872 17.3223 28.2872C16.7107 28.2872 16.2148 28.7831 16.2148 29.3947C16.2148 30.0063 16.7107 30.5021 17.3223 30.5021Z" fill="#5C69AB"/>
<path id="Vector_48" d="M17.3218 30.7261C16.5875 30.7261 15.9904 30.1285 15.9904 29.3947C15.9904 28.6604 16.5875 28.0632 17.3218 28.0632C18.0561 28.0632 18.6533 28.6604 18.6533 29.3947C18.6537 30.1285 18.0561 30.7261 17.3218 30.7261ZM17.3218 28.5112C16.8348 28.5112 16.4384 28.9073 16.4384 29.3947C16.4384 29.8817 16.8344 30.2781 17.3218 30.2781C17.8092 30.2781 18.2053 29.8817 18.2053 29.3947C18.2057 28.9073 17.8092 28.5112 17.3218 28.5112Z" fill="#5C69AB"/>
</g>
<g id="Group_28">
<path id="Vector_49" d="M71.2028 9.84033C71.4398 9.84033 71.6325 10.0325 71.6325 10.27C71.6325 10.507 71.4403 10.6996 71.2028 10.6996C70.9658 10.6996 70.7732 10.5074 70.7732 10.27C70.7736 10.0325 70.9658 9.84033 71.2028 9.84033Z" fill="#5C69AB"/>
<path id="Vector_50" d="M71.2028 10.9232C70.8422 10.9232 70.5492 10.6302 70.5492 10.27C70.5492 9.90981 70.8422 9.61682 71.2028 9.61682C71.563 9.61682 71.856 9.90981 71.856 10.27C71.8565 10.6302 71.5635 10.9232 71.2028 10.9232ZM71.2028 10.0644C71.0895 10.0644 70.9972 10.1567 70.9972 10.2696C70.9972 10.3829 71.0895 10.4747 71.2028 10.4747C71.3162 10.4747 71.408 10.3829 71.408 10.2696C71.4085 10.1567 71.3162 10.0644 71.2028 10.0644Z" fill="#5C69AB"/>
</g>
<path id="Vector_51" d="M54.1138 26.1821C54.1138 26.5279 53.8334 26.8084 53.4875 26.8084C53.1417 26.8084 52.8612 26.5279 52.8612 26.1821C52.8612 25.8362 53.1417 25.5558 53.4875 25.5558C53.8334 25.5553 54.1138 25.8358 54.1138 26.1821Z" fill="#111111"/>
<path id="Vector_52" d="M16.8411 82.6922C16.8411 83.0381 16.5607 83.3185 16.2148 83.3185C15.869 83.3185 15.5885 83.0381 15.5885 82.6922C15.5885 82.3464 15.869 82.0659 16.2148 82.0659C16.5607 82.0659 16.8411 82.3464 16.8411 82.6922Z" fill="#111111"/>
<path id="Vector_53" d="M179.571 10.9478C179.571 11.2937 179.291 11.5741 178.945 11.5741C178.599 11.5741 178.319 11.2937 178.319 10.9478C178.319 10.602 178.599 10.3215 178.945 10.3215C179.291 10.3215 179.571 10.602 179.571 10.9478Z" fill="#111111"/>
<path id="Vector_54" d="M233.604 123.739C233.604 124.084 233.323 124.365 232.977 124.365C232.632 124.365 232.351 124.084 232.351 123.739C232.351 123.393 232.632 123.112 232.977 123.112C233.323 123.112 233.604 123.393 233.604 123.739Z" fill="#111111"/>
</g>
</g>
<g id="Group_29">
<g id="Group_30">
<g id="Group_31">
<path id="Vector_55" d="M175.215 217.894C175.885 207.766 172.575 197.733 165.783 189.307L162.122 184.765L158.626 180.428L156.118 177.315L131.273 178.797L106.428 177.315L103.919 180.428L100.424 184.765L96.763 189.307C91.8086 195.453 88.7067 202.455 87.6512 209.725C87.6032 210.054 87.0392 216.333 86.2574 224H175.042L175.215 217.894Z" fill="#111111"/>
</g>
<path id="Vector_56" d="M98.3669 224.448C98.3517 224.448 98.3364 224.447 98.3207 224.446C98.0748 224.42 97.8956 224.201 97.9207 223.955C98.426 219 98.8368 214.656 99.0828 212.061C99.236 210.444 99.2987 209.783 99.3166 209.66C100.384 202.308 103.568 195.173 108.523 189.025C108.678 188.832 108.961 188.802 109.153 188.958C109.346 189.113 109.376 189.395 109.221 189.588C104.367 195.61 101.248 202.596 100.204 209.789C100.188 209.894 100.099 210.839 99.9752 212.146C99.7293 214.742 99.318 219.088 98.8122 224.046C98.7885 224.276 98.594 224.448 98.3669 224.448Z" fill="#F6EEE3"/>
</g>
<g id="Group_32">
<path id="Vector_57" d="M163.043 85.0112C162.411 80.6262 160.181 76.8092 156.923 73.8771C156.172 73.0917 155.459 72.3857 154.802 71.7607C152.521 69.5911 149.403 67.4205 149.244 64.4503C148.697 54.2139 132.733 46.3963 127.578 50.8588C127.439 50.9789 123.047 48.6905 116.951 49.979C115.756 45.8265 111.931 42.7872 107.395 42.7872C101.902 42.7872 97.4489 47.2399 97.4489 52.7328C97.4489 56.5386 99.5872 59.8435 102.728 61.5159C102.583 61.9513 102.439 62.3917 102.276 62.8379C100.322 68.1857 97.1143 72.0582 92.3852 76.152L91.7432 76.7076C83.0144 84.2631 83.7182 96.9361 90.4095 102.461L92.339 104.071C92.6374 104.32 92.9447 104.557 93.2597 104.784C94.4057 105.608 95.0024 106.837 94.8416 108.143C94.5428 110.567 94.7291 113.073 95.5337 115.584C98.5255 124.921 109.172 131.027 120.676 129.927C128.656 129.164 135.394 125.296 139.446 119.966C144.291 113.593 150.186 107.834 156.283 102.272C161.267 97.7255 163.974 91.4656 163.043 85.0112Z" fill="#111111"/>
<g id="Group_33">
<g id="Group_34">
<g id="Group_35">
<g id="Group_36">
<path id="Vector_58" d="M149.631 89.1436L148.016 71.3531L140.121 71.2115L139.801 65.3844L137.403 70.9163L130.45 70.1126L128.849 67.3578C128.458 66.6845 127.774 66.4009 127.118 66.4533C126.573 72.8463 123.541 78.4414 120.455 78.94L116.289 78.0337L116.295 77.9544L114.98 77.9839C111.533 78.061 108.776 80.9448 108.853 84.3917L108.856 84.5346C108.933 87.982 111.817 90.739 115.264 90.6619L117.821 90.6046L116.904 113.587C116.87 119.785 122.425 123.349 128.188 123.381L128.426 123.382C134.189 123.414 138.931 118.368 138.966 112.169L139.01 104.084C145.644 102.44 150.268 96.1598 149.631 89.1436Z" fill="#FFA485"/>
</g>
<path id="Vector_59" d="M114.449 86.4883C114.301 86.4883 114.156 86.4149 114.07 86.2805C113.938 86.0717 114 85.7948 114.209 85.6622L115.829 84.634L114.018 82.5674C113.855 82.3815 113.874 82.0984 114.059 81.9353C114.244 81.7722 114.528 81.7901 114.692 81.977L116.848 84.4369C116.934 84.5355 116.973 84.6663 116.954 84.7962C116.936 84.9257 116.861 85.0404 116.751 85.1107L114.688 86.4193C114.614 86.4655 114.531 86.4883 114.449 86.4883Z" fill="#E06A4B"/>
</g>
<path id="Vector_60" d="M139.001 104.254C139.001 104.254 126.703 104.761 124.669 100.374C124.669 100.374 124.071 107.048 138.875 110.613L139.001 104.254Z" fill="#E06A4B"/>
</g>
<path id="Vector_61" d="M114.165 93.7316C114.085 93.7316 114.004 93.7285 113.923 93.7227C113.057 93.6586 112.269 93.2621 111.702 92.6049C111.134 91.9481 110.858 91.1099 110.921 90.2444C111.053 88.4587 112.609 87.116 114.401 87.2446C116.187 87.3763 117.534 88.9367 117.402 90.7224C117.276 92.4284 115.848 93.7316 114.165 93.7316ZM114.161 89.0285C113.405 89.0285 112.765 89.6127 112.709 90.3766C112.68 90.7645 112.804 91.14 113.059 91.4343C113.313 91.7286 113.667 91.9069 114.055 91.9356C114.856 91.9956 115.556 91.3917 115.615 90.5912C115.674 89.7906 115.07 89.0913 114.269 89.0326C114.232 89.0299 114.197 89.0285 114.161 89.0285Z" fill="#F6EEE3"/>
<g id="Group_37">
<path id="Vector_62" d="M147.452 79.9959C147.436 80.6666 146.879 81.1966 146.208 81.18C145.538 81.1634 145.008 80.6066 145.024 79.9359C145.041 79.2652 145.598 78.7353 146.268 78.7518C146.939 78.7684 147.469 79.3253 147.452 79.9959Z" fill="#111111"/>
<path id="Vector_63" d="M134.608 79.9959C134.591 80.6666 134.034 81.1966 133.364 81.18C132.694 81.1634 132.163 80.6066 132.18 79.9359C132.196 79.2652 132.753 78.7353 133.424 78.7518C134.094 78.7684 134.624 79.3253 134.608 79.9959Z" fill="#111111"/>
<g id="Group_38">
<path id="Vector_64" d="M132.044 86.4175C128.857 86.4175 126.251 83.4231 126.228 79.7253C126.215 77.5283 129.124 76.5266 132.014 76.5082C134.905 76.4854 137.826 77.4548 137.84 79.6523V79.6527C137.864 83.3626 135.278 86.3978 132.077 86.418C132.066 86.4175 132.055 86.4175 132.044 86.4175ZM132.096 77.8518C132.07 77.8518 132.047 77.8518 132.022 77.8522C129.52 77.8679 127.565 78.6873 127.572 79.7172C127.59 82.6763 129.595 85.0735 132.044 85.0735C132.052 85.0735 132.059 85.0735 132.067 85.0735C134.528 85.0578 136.515 82.6297 136.496 79.6608C136.49 78.6407 134.562 77.8518 132.096 77.8518Z" fill="white"/>
<path id="Vector_65" d="M146.181 86.142C144.621 86.142 143.158 85.4377 142.058 84.1569C140.978 82.8985 140.376 81.227 140.365 79.4502C140.352 77.2532 143.261 76.251 146.152 76.2331C147.581 76.225 148.937 76.458 149.953 76.8921C151.252 77.4467 151.971 78.3293 151.977 79.3772C151.988 81.1539 151.408 82.8326 150.344 84.1049C149.253 85.409 147.786 86.1326 146.214 86.1424C146.203 86.142 146.192 86.142 146.181 86.142ZM146.233 77.5767C146.208 77.5767 146.184 77.5767 146.16 77.5767C143.658 77.5923 141.702 78.4113 141.709 79.4417C141.718 80.9004 142.204 82.2641 143.077 83.2811C143.924 84.2667 145.036 84.806 146.205 84.798C147.375 84.7908 148.479 84.238 149.313 83.2421C150.173 82.2139 150.642 80.8439 150.633 79.3852C150.627 78.3651 148.7 77.5767 146.233 77.5767Z" fill="white"/>
<g id="Group_39">
<path id="Vector_66" d="M138.864 77.8616L138.943 81.8873C138.953 82.3837 139.363 82.7784 139.86 82.7685L140.754 82.751C141.43 82.7376 141.99 83.2752 142.003 83.9517C142.036 85.6276 140.705 87.0129 139.029 87.046L137.629 87.0738" fill="#FFA485"/>
<path id="Vector_67" d="M137.629 87.5214C137.386 87.5214 137.186 87.3265 137.181 87.0824C137.176 86.8351 137.373 86.6303 137.62 86.6254L139.02 86.5976C139.711 86.5842 140.354 86.3024 140.833 85.8042C141.312 85.306 141.569 84.6511 141.555 83.9607C141.551 83.7528 141.466 83.5593 141.316 83.4155C141.167 83.2717 140.971 83.1951 140.763 83.1991L139.868 83.217C139.494 83.2192 139.168 83.0902 138.908 82.8411C138.649 82.5916 138.502 82.256 138.495 81.8963L138.415 77.871C138.41 77.6237 138.607 77.419 138.854 77.4141C138.857 77.4141 138.86 77.4141 138.863 77.4141C139.107 77.4141 139.306 77.6089 139.311 77.8531L139.391 81.8784C139.393 81.9993 139.442 82.1113 139.529 82.1947C139.616 82.278 139.725 82.325 139.851 82.3206L140.745 82.3026C141.189 82.2941 141.615 82.4594 141.938 82.769C142.26 83.0786 142.442 83.4957 142.451 83.9423C142.469 84.8724 142.124 85.754 141.48 86.4247C140.835 87.0958 139.968 87.4753 139.038 87.4936L137.638 87.5214C137.635 87.5214 137.632 87.5214 137.629 87.5214Z" fill="#E06A4B"/>
</g>
<path id="Vector_68" d="M126.846 80.9094C126.781 80.9094 126.715 80.9 126.65 80.8798L117.232 78.0167C116.877 77.9087 116.677 77.5333 116.785 77.178C116.893 76.8232 117.268 76.6216 117.623 76.7305L127.041 79.5936C127.396 79.7016 127.596 80.077 127.489 80.4323C127.4 80.7226 127.134 80.9094 126.846 80.9094Z" fill="white"/>
<path id="Vector_69" d="M137.105 81.317C136.894 81.317 136.686 81.218 136.555 81.033C136.342 80.7311 136.412 80.314 136.713 80.0989C137.59 79.4731 139.722 78.6667 141.511 80.0958C141.801 80.3274 141.849 80.7499 141.617 81.0402C141.386 81.33 140.963 81.3775 140.673 81.1464C139.235 79.9986 137.562 81.1455 137.491 81.1947C137.374 81.2772 137.239 81.317 137.105 81.317Z" fill="white"/>
</g>
<g id="Group_40">
<g id="Group_41">
<path id="Vector_70" d="M139.941 97.9855C139.887 98.0011 139.828 97.9985 139.772 97.9747C139.715 97.9501 138.367 97.3883 137.394 98.4572C137.3 98.5603 137.14 98.5679 137.037 98.4738C136.934 98.3797 136.926 98.2202 137.02 98.1167C138.241 96.7763 139.956 97.5034 139.974 97.511C140.101 97.5666 140.159 97.7153 140.104 97.843C140.072 97.9147 140.011 97.9653 139.941 97.9855Z" fill="#E06A4B"/>
</g>
</g>
<g id="Group_42">
<g id="Group_43">
<g id="Group_44">
<g id="Group_45">
<g id="Group_46">
<g id="Group_47">
<path id="Vector_71" d="M129.042 75.2691C129.523 75.3667 130.082 75.192 130.633 75.0545C131.184 74.904 131.742 74.7664 132.23 74.6643C132.72 74.5612 133.286 74.4627 133.852 74.3789C134.411 74.2835 134.997 74.2176 135.392 73.9363C135.775 73.6702 135.839 73.1259 135.21 72.6044C134.615 72.0932 133.254 71.6873 131.633 72.0238C130.016 72.3674 128.953 73.2822 128.632 73.9856C128.286 74.7109 128.579 75.1804 129.042 75.2691Z" fill="#111111"/>
</g>
</g>
</g>
<g id="Group_48">
<g id="Group_49">
<g id="Group_50">
<path id="Vector_72" d="M149.147 75.063C148.772 75.1548 148.327 75.0347 147.889 74.9433C147.451 74.8421 147.009 74.7512 146.621 74.6857C146.233 74.6199 145.785 74.5599 145.337 74.5115C144.894 74.4537 144.432 74.4201 144.112 74.2109C143.803 74.0137 143.736 73.5872 144.214 73.1581C144.666 72.7378 145.724 72.3763 147.009 72.5909C148.291 72.8109 149.155 73.4972 149.429 74.0406C149.724 74.6011 149.508 74.9792 149.147 75.063Z" fill="#111111"/>
</g>
</g>
</g>
</g>
</g>
</g>
<path id="Vector_73" d="M137.501 92.1433C137.492 92.1433 137.483 92.1429 137.473 92.1424L133.978 91.9274C132.637 91.845 131.592 90.7281 131.6 89.385L131.602 88.9079C131.603 88.661 131.803 88.4617 132.05 88.4617C132.051 88.4617 132.051 88.4617 132.052 88.4617C132.299 88.4626 132.499 88.6642 132.498 88.9115L132.496 89.389C132.491 90.2577 133.166 90.9799 134.033 91.0327L137.528 91.2478C137.775 91.263 137.963 91.4754 137.947 91.7227C137.933 91.9606 137.736 92.1433 137.501 92.1433Z" fill="#E06A4B"/>
</g>
</g>
</g>
<g id="Group_51">
<g id="Group_52">
<path id="Vector_74" d="M117.279 132.982L142.469 132.837L142.624 132.446L150.299 113.159C150.333 113.073 150.419 113.018 150.511 113.014L109.331 113.008L117.066 132.447L117.279 132.982Z" fill="#FFA485"/>
<path id="Vector_75" opacity="0.46" d="M148.797 115.314L140.358 119.441C137.753 120.715 135.562 122.7 134.038 125.167L131.013 130.065L132.013 130.998L135.012 126.142C136.536 123.675 138.727 121.689 141.332 120.415L148.88 116.724L149.567 114.996C149.306 115.088 149.047 115.191 148.797 115.314Z" fill="#E06A4B"/>
<path id="Vector_76" d="M128.468 161.101C128.719 161.734 129.274 162.054 129.845 162.091C130.416 162.054 130.971 161.734 131.223 161.101L142.469 132.837L117.279 132.982L128.468 161.101Z" fill="#EB8D2E"/>
<g id="Group_53">
<path id="Vector_77" d="M188.601 147.127L168.161 123.265C162.271 116.556 159.458 113.222 150.677 113.015C150.67 113.015 150.663 113.014 150.656 113.014C150.612 113.014 150.57 113.011 150.525 113.01C150.52 113.01 150.516 113.014 150.511 113.014C150.419 113.019 150.333 113.073 150.299 113.16L142.624 132.446L142.469 132.837L131.223 161.101C130.971 161.734 130.416 162.054 129.845 162.091C129.274 162.054 128.719 161.734 128.468 161.101L117.279 132.982L117.066 132.446L109.331 113.007C109.33 113.007 109.33 113.007 109.329 113.007C109.257 113.009 109.184 113.01 109.111 113.011C109.094 113.011 109.077 113.011 109.059 113.012C101.101 113.15 91.9354 116.434 84.9569 121.738C78.0447 126.991 74.6663 135.552 75.7178 144.013C75.9341 145.754 76.3853 147.459 76.9672 149.115L77.4148 150.388C78.9151 154.655 80.6023 158.855 82.4696 162.975C83.1474 164.47 83.6814 165.645 83.6908 165.654L88.6569 166.558C88.7523 166.661 88.9158 166.657 89.0068 166.55L102.177 183.229C102.178 183.327 102.239 183.414 102.331 183.448L112.645 187.246C118.209 189.17 124.027 190.105 129.844 190.056C135.661 190.105 141.479 189.17 147.043 187.246L159.847 182.256C159.957 182.214 160.018 182.096 159.99 181.982C159.99 181.982 170.937 166.659 171.032 166.555L188.595 147.438C188.676 147.351 188.678 147.217 188.601 147.127Z" fill="#5C69AB"/>
<path id="Vector_78" d="M129.407 190.282C123.656 190.282 117.994 189.332 112.573 187.457L102.254 183.658C102.103 183.602 101.994 183.471 101.963 183.318L88.9503 166.84C88.9141 166.85 88.8764 166.855 88.8388 166.856C88.7411 166.859 88.6381 166.827 88.5574 166.768L83.651 165.875C83.6044 165.866 83.5618 165.843 83.5291 165.809C83.491 165.77 83.4906 165.769 82.2657 163.067C80.4021 158.955 78.6988 154.715 77.2038 150.462L76.7562 149.189C76.1107 147.353 75.6981 145.669 75.496 144.04C74.4172 135.365 77.9905 126.751 84.8216 121.559C91.758 116.288 101.044 112.927 109.056 112.788L109.112 113.011L109.108 112.787L109.325 112.783C109.438 112.792 109.505 112.838 109.54 112.925L128.676 161.018C128.873 161.514 129.316 161.832 129.86 161.867C130.375 161.832 130.818 161.515 131.015 161.018L150.091 113.077C150.153 112.919 150.302 112.81 150.474 112.793C150.499 112.787 150.523 112.785 150.545 112.787L150.661 112.79C159.448 112.997 162.339 116.292 168.102 122.857L168.33 123.117L188.772 146.981C188.923 147.158 188.918 147.419 188.762 147.59L171.198 166.707C171.034 166.916 163.975 176.791 160.222 182.044C160.219 182.226 160.107 182.396 159.931 182.465L147.126 187.454C141.56 189.38 135.743 190.333 129.845 190.28C129.698 190.281 129.552 190.282 129.407 190.282ZM129.843 189.832C135.696 189.888 141.461 188.94 146.97 187.034L159.767 182.048C159.751 181.984 159.771 181.905 159.808 181.851C162.378 178.254 170.771 166.51 170.867 166.404L188.431 147.287L188.602 147.127L188.431 147.273L167.765 123.153C162.089 116.686 159.241 113.44 150.672 113.239L150.548 113.235C150.542 113.236 150.536 113.237 150.53 113.237L142.678 132.919L131.431 161.183C131.169 161.845 130.581 162.268 129.86 162.314C129.11 162.268 128.523 161.845 128.26 161.183L109.18 113.234L109.115 113.235L109.063 113.236C101.142 113.373 91.9569 116.699 85.0926 121.916C78.3883 127.011 74.8814 135.467 75.9404 143.985C76.1389 145.581 76.5439 147.235 77.1791 149.04L77.6267 150.314C79.1176 154.554 80.816 158.782 82.6743 162.883C83.4619 164.62 83.7477 165.245 83.8445 165.455L88.6977 166.338C88.7452 166.347 88.7886 166.37 88.8213 166.406C88.8652 166.355 88.9423 166.325 89.0041 166.327C89.0713 166.328 89.1421 166.36 89.1838 166.412L102.354 183.09C102.385 183.129 102.402 183.177 102.402 183.228L112.724 187.036C118.229 188.94 123.974 189.886 129.843 189.832Z" fill="#5C69AB"/>
</g>
</g>
<g id="Group_54">
<g id="Group_55">
<g id="Group_56">
<path id="Vector_79" d="M155.743 185.783H127.944C126.214 185.783 124.812 184.381 124.812 182.652V145.37C124.812 143.641 126.215 142.239 127.944 142.239H155.743C157.472 142.239 158.874 143.641 158.874 145.37V182.652C158.875 184.381 157.472 185.783 155.743 185.783Z" fill="#231F20"/>
<g id="Group_57">
<path id="Vector_80" d="M146.972 142.699H136.715C135.967 142.699 135.36 142.092 135.36 141.344V140.211C135.36 139.463 135.967 138.856 136.715 138.856H146.972C147.72 138.856 148.327 139.463 148.327 140.211V141.344C148.327 142.092 147.72 142.699 146.972 142.699Z" fill="#F6EEE3"/>
<path id="Vector_81" d="M146.972 142.922H136.715C135.844 142.922 135.136 142.214 135.136 141.344V140.211C135.136 139.34 135.844 138.632 136.715 138.632H146.972C147.842 138.632 148.55 139.34 148.55 140.211V141.344C148.551 142.214 147.843 142.922 146.972 142.922ZM136.715 139.079C136.092 139.079 135.584 139.587 135.584 140.21V141.344C135.584 141.967 136.092 142.474 136.715 142.474H146.972C147.596 142.474 148.103 141.967 148.103 141.344V140.21C148.103 139.587 147.595 139.079 146.972 139.079H136.715Z" fill="#231F20"/>
</g>
<g id="Group_58">
<path id="Vector_82" d="M150.158 144.101H133.529C133.291 144.101 133.099 143.908 133.099 143.67V142.729C133.099 142.491 133.291 142.298 133.529 142.298H150.158C150.396 142.298 150.589 142.491 150.589 142.729V143.67C150.589 143.908 150.396 144.101 150.158 144.101Z" fill="#F6EEE3"/>
<path id="Vector_83" d="M150.158 144.325H133.529C133.168 144.325 132.875 144.031 132.875 143.67V142.728C132.875 142.367 133.168 142.074 133.529 142.074H150.158C150.519 142.074 150.813 142.367 150.813 142.728V143.67C150.813 144.031 150.519 144.325 150.158 144.325ZM133.529 142.522C133.415 142.522 133.323 142.615 133.323 142.729V143.671C133.323 143.785 133.415 143.877 133.529 143.877H150.158C150.272 143.877 150.365 143.785 150.365 143.671V142.729C150.365 142.615 150.272 142.522 150.158 142.522H133.529Z" fill="#231F20"/>
</g>
</g>
<g id="Group_59">
<g id="Group_60">
<g id="Group_61">
<g id="Group_62">
<g id="Group_63">
<g id="Group_64">
<g id="Group_65">
<path id="Vector_84" d="M132.431 169.136C132.86 170.85 134.429 170.766 135.961 170.379C135.048 170.764 134.371 171.375 134.703 172.507C135.061 174.6 137.052 174.685 138.716 174.22C137.28 175.129 139.106 177.328 141.33 177.295C144.45 177.408 147.544 177.508 150.665 177.684C152.867 177.807 154.954 177.703 156.899 176.631L159.276 176.731L158.775 160.296L154.875 161.019C154.416 160.706 153.95 160.405 153.472 160.134C153.472 160.134 145.218 156.436 142.212 155.723C141.89 155.646 141.559 155.576 141.23 155.612C140.9 155.648 140.568 155.808 140.404 156.095C140.19 156.469 140.31 156.943 140.48 157.339C141.01 158.567 141.479 159.633 141.955 160.569C140.79 160.63 140.47 160.64 139.105 160.684C136.234 160.984 131.44 160.897 132.051 164.63C132.374 165.907 133.418 166.108 134.497 165.963C133.023 166.461 131.698 167.344 132.431 169.136ZM134.748 170.848C134.995 170.775 135.224 170.712 135.426 170.671C135.229 170.731 134.998 170.788 134.748 170.848Z" fill="#FFA485"/>
</g>
<path id="Vector_85" opacity="0.36" d="M141.956 160.569L149.441 160.743C149.441 160.743 142.274 158.657 141.086 158.726L141.956 160.569Z" fill="#E06A4B"/>
</g>
</g>
</g>
<g id="Group_66">
<path id="Vector_86" d="M158.962 179.67L162.762 179.678C163.373 179.68 163.869 179.186 163.87 178.575L163.912 158.89C163.913 158.28 163.42 157.784 162.809 157.783L159.009 157.775C158.398 157.773 157.902 158.267 157.902 158.878L157.86 178.562C157.858 179.173 158.352 179.669 158.962 179.67Z" fill="#F2F1EC"/>
</g>
<g id="Group_67">
<path id="Vector_87" d="M161.419 157.795V179.948C161.419 181.08 162.442 181.938 163.557 181.741L181.278 178.609C194.905 175.917 200.175 159.228 190.564 149.199L188.855 147.416L163.289 155.265C162.178 155.606 161.419 156.632 161.419 157.795Z" fill="#5C69AB"/>
<g id="Group_68">
<path id="Vector_88" d="M166.058 176.658C166.352 177.253 166.108 177.975 165.513 178.269C164.917 178.563 164.196 178.319 163.902 177.724C163.607 177.128 163.851 176.407 164.447 176.113C165.042 175.818 165.764 176.063 166.058 176.658Z" fill="#F2F1EC"/>
</g>
<path id="Vector_89" d="M163.238 181.992C162.761 181.992 162.297 181.826 161.926 181.514C161.461 181.125 161.195 180.554 161.195 179.948V157.795C161.195 156.526 162.01 155.423 163.223 155.05L188.789 147.201C188.87 147.175 188.958 147.199 189.017 147.26L190.726 149.044C195.297 153.814 196.838 160.422 194.849 166.722C192.86 173.022 187.803 177.547 181.321 178.827L163.596 181.961C163.477 181.982 163.357 181.992 163.238 181.992ZM188.789 147.67L163.355 155.478C162.331 155.793 161.643 156.724 161.643 157.795V179.948C161.643 180.421 161.852 180.867 162.214 181.171C162.576 181.475 163.051 181.603 163.518 181.52L181.24 178.387C187.554 177.14 192.484 172.729 194.423 166.587C196.361 160.446 194.859 154.003 190.403 149.353L188.789 147.67Z" fill="#5C69AB"/>
</g>
<g id="Group_69">
<path id="Vector_90" d="M134.219 166.215C134.109 166.215 134.014 166.134 133.997 166.023C133.979 165.901 134.064 165.787 134.187 165.769L138.776 165.096C138.896 165.082 139.011 165.163 139.03 165.286C139.048 165.408 138.962 165.522 138.84 165.54L134.251 166.212C134.24 166.214 134.229 166.215 134.219 166.215Z" fill="#F16F5F"/>
</g>
<g id="Group_70">
<path id="Vector_91" d="M135.961 170.603C135.859 170.603 135.767 170.533 135.743 170.43C135.714 170.309 135.79 170.189 135.91 170.16L139.672 169.282C139.794 169.254 139.913 169.329 139.941 169.45C139.969 169.57 139.894 169.69 139.774 169.719L136.011 170.597C135.994 170.601 135.977 170.603 135.961 170.603Z" fill="#F16F5F"/>
</g>
<g id="Group_71">
<path id="Vector_92" d="M138.514 174.6C138.416 174.6 138.325 174.535 138.298 174.436C138.266 174.316 138.336 174.193 138.456 174.16L142.068 173.173C142.189 173.142 142.311 173.211 142.343 173.33C142.375 173.45 142.305 173.573 142.186 173.605L138.574 174.593C138.554 174.598 138.534 174.6 138.514 174.6Z" fill="#F16F5F"/>
</g>
</g>
</g>
</g>
</g>
<path id="Vector_93" d="M161.419 161.595C161.295 161.595 161.195 161.495 161.195 161.371V158.019C161.195 156.495 162.223 155.153 163.693 154.756L178.385 150.79C178.503 150.758 178.627 150.829 178.659 150.948C178.691 151.067 178.62 151.19 178.501 151.222L163.81 155.188C162.534 155.533 161.643 156.697 161.643 158.019V161.371C161.643 161.495 161.543 161.595 161.419 161.595Z" fill="#111111"/>
<path id="Vector_94" d="M166.182 154.54C166.106 154.54 166.031 154.5 165.989 154.43L160.473 145.096C160.41 144.99 160.445 144.852 160.552 144.789C160.657 144.726 160.796 144.761 160.859 144.868L166.375 154.202C166.439 154.308 166.403 154.446 166.296 154.509C166.261 154.53 166.221 154.54 166.182 154.54Z" fill="#111111"/>
</g>
<g id="Group_72">
<g id="Group_73">
<g id="Group_74">
<g id="Group_75">
<path id="Vector_95" d="M130.23 133.884L135.013 126.142C136.537 123.675 138.728 121.69 141.332 120.416L149.771 116.288C150.983 115.696 152.34 115.468 153.678 115.633L169.943 114.706C170.34 114.684 170.618 115.086 170.458 115.45C170.454 115.459 170.449 115.469 170.445 115.478C170.028 116.436 169.126 117.095 168.09 117.222L160.446 118.161L160.823 118.195C161.853 118.29 162.735 118.97 163.089 119.941L163.719 121.666L164.254 122.233C164.987 123.012 165.205 124.143 164.813 125.138L161.021 134.771C160.789 135.359 160.104 135.626 159.535 135.35C158.129 134.668 157.45 133.047 157.949 131.567L159.035 128.348L153.797 134.778C152.936 135.836 151.836 136.673 150.587 137.222L146.551 138.996L143.706 146.966L130.23 133.884Z" fill="#FFA485"/>
<g id="Group_76">
<path id="Vector_96" d="M160.514 118.597C160.482 118.613 160.445 118.623 160.405 118.625L154.845 118.87C154.695 118.875 154.567 118.759 154.56 118.609C154.555 118.459 154.671 118.333 154.821 118.325L160.382 118.08C160.532 118.074 160.659 118.19 160.666 118.341C160.671 118.452 160.608 118.551 160.514 118.597Z" fill="#E06A4B"/>
</g>
<g id="Group_77">
<path id="Vector_97" d="M163.626 121.934C163.597 121.948 163.567 121.957 163.533 121.961L156.77 122.665C156.62 122.681 156.487 122.572 156.471 122.423C156.455 122.272 156.563 122.14 156.713 122.123L163.477 121.419C163.627 121.403 163.76 121.512 163.776 121.661C163.788 121.778 163.725 121.885 163.626 121.934Z" fill="#E06A4B"/>
</g>
<g id="Group_78">
<path id="Vector_98" d="M159.155 128.591C159.088 128.625 159.009 128.63 158.934 128.6C158.794 128.545 158.726 128.387 158.781 128.247L159.514 126.394C159.57 126.255 159.728 126.187 159.868 126.242C160.008 126.297 160.076 126.455 160.021 126.595L159.288 128.448C159.262 128.513 159.214 128.563 159.155 128.591Z" fill="#E06A4B"/>
</g>
</g>
<g id="Group_79">
<path id="Vector_99" d="M146.788 146.349L143.984 149.357C143.568 149.803 142.869 149.828 142.422 149.411L127.193 135.214C126.747 134.798 126.723 134.098 127.139 133.652L129.943 130.644C130.359 130.197 131.058 130.172 131.505 130.589L146.734 144.787C147.18 145.203 147.204 145.903 146.788 146.349Z" fill="#F2F1EC"/>
<g id="Group_80">
<path id="Vector_100" d="M85.3812 169.329C86.1723 170.827 87.3134 172.805 88.609 174.976C92.6379 181.727 100.406 184.647 107.487 182.993C110.065 182.39 112.552 181.181 114.735 179.33C118.445 176.182 122.426 172.686 126.311 169.221C134.39 162.015 142.05 154.939 145.992 151.388C146.848 150.617 146.859 149.277 146.014 148.494L128.677 132.41C128.13 131.903 127.288 131.89 126.726 132.38L105.672 150.745L79.9908 155.762C79.9908 155.762 83.143 165.094 85.3812 169.329Z" fill="#5C69AB"/>
<path id="Vector_101" d="M103.496 183.678C97.3992 183.679 91.6504 180.51 88.4163 175.091C87.0011 172.719 85.9129 170.816 85.1827 169.434C82.9619 165.231 79.8093 155.927 79.778 155.833C79.7574 155.772 79.7641 155.705 79.7964 155.649C79.8291 155.593 79.8837 155.554 79.9473 155.542L105.57 150.536L126.578 132.211C127.229 131.644 128.197 131.658 128.83 132.246L146.166 148.33C146.614 148.746 146.869 149.335 146.865 149.946C146.86 150.558 146.596 151.144 146.142 151.554C144.788 152.774 142.995 154.41 140.897 156.324C136.828 160.037 131.764 164.657 126.46 169.388C122.031 173.339 118.242 176.647 114.879 179.5C112.726 181.326 110.256 182.575 107.538 183.21C106.189 183.526 104.834 183.678 103.496 183.678ZM80.2851 155.932C80.7972 157.427 83.5752 165.433 85.5787 169.225C86.3054 170.6 87.3895 172.497 88.8007 174.862C92.6445 181.302 100.133 184.483 107.436 182.774C110.084 182.156 112.491 180.939 114.589 179.159C117.949 176.308 121.735 173.003 126.161 169.054C131.463 164.324 136.526 159.705 140.594 155.993C142.693 154.079 144.487 152.442 145.841 151.222C146.203 150.896 146.413 150.43 146.416 149.943C146.42 149.45 146.222 148.994 145.861 148.659L128.525 132.575C128.061 132.144 127.351 132.132 126.872 132.549L105.818 150.913C105.789 150.939 105.753 150.957 105.714 150.964L80.2851 155.932Z" fill="#5C69AB"/>
</g>
<path id="Vector_102" d="M102.644 183.558C102.235 183.558 101.826 183.547 101.416 183.524C101.292 183.518 101.197 183.412 101.204 183.289C101.211 183.165 101.319 183.062 101.44 183.077C107.519 183.407 113.57 181.216 118.029 177.062L124.659 170.885C124.75 170.8 124.891 170.806 124.976 170.896C125.06 170.986 125.055 171.128 124.965 171.212L118.334 177.39C114.089 181.346 108.429 183.558 102.644 183.558Z" fill="#111111"/>
<path id="Vector_103" d="M97.0636 157.499C97.0004 157.499 96.9373 157.472 96.8929 157.42C96.8127 157.325 96.8244 157.184 96.9185 157.104L119.495 137.892C119.59 137.812 119.731 137.823 119.811 137.918C119.891 138.012 119.879 138.154 119.785 138.234L97.2088 157.445C97.1667 157.481 97.1151 157.499 97.0636 157.499Z" fill="#111111"/>
<path id="Vector_104" d="M103.061 152.395C102.983 152.395 102.909 152.355 102.867 152.284L93.9728 136.923C93.9106 136.815 93.9473 136.678 94.0544 136.616C94.161 136.553 94.2981 136.59 94.3604 136.698L103.254 152.059C103.317 152.166 103.28 152.303 103.173 152.365C103.138 152.386 103.099 152.395 103.061 152.395Z" fill="#111111"/>
</g>
<g id="Group_81">
<path id="Vector_105" d="M141.138 149.27C141.433 149.865 141.188 150.587 140.593 150.881C139.998 151.175 139.276 150.931 138.982 150.336C138.688 149.741 138.932 149.019 139.527 148.725C140.123 148.431 140.844 148.675 141.138 149.27Z" fill="#F2F1EC"/>
</g>
</g>
</g>
</g>
</g>
</g>
<g id="Group_82">
<g id="Group_83">
<g id="Group_84">
<g id="Group_85">
<path id="Vector_106" d="M21.951 55.6416V108.466C21.951 116.566 44.1539 123.597 76.6944 127.116V89.8164V74.2914C44.1539 70.7728 21.951 63.7423 21.951 55.6416Z" fill="#EB8D2E"/>
</g>
<path id="Vector_107" d="M70.9846 85.5358C70.9765 85.5358 70.9685 85.5353 70.9604 85.5344C44.1149 82.6314 27.4381 76.8912 27.4381 70.5529C27.4381 70.4292 27.5385 70.3289 27.6621 70.3289C27.7858 70.3289 27.8861 70.4292 27.8861 70.5529C27.8861 76.5507 44.8129 82.2564 71.0088 85.0891C71.1315 85.1026 71.2207 85.2128 71.2073 85.336C71.1943 85.4506 71.0975 85.5358 70.9846 85.5358Z" fill="#F6EEE3"/>
<path id="Vector_108" d="M47.9467 90.5268C47.9297 90.5268 47.9127 90.525 47.8956 90.521C43.7118 89.547 40.0816 88.4727 37.1065 87.3281C36.9909 87.2837 36.9335 87.1538 36.9779 87.0382C37.0227 86.9226 37.1526 86.8662 37.2673 86.9096C40.2227 88.0471 43.8327 89.1152 47.9969 90.0846C48.1174 90.1128 48.1927 90.2329 48.1644 90.3534C48.1403 90.4569 48.0484 90.5268 47.9467 90.5268Z" fill="#F6EEE3"/>
<path id="Vector_109" d="M70.9847 94.2494C70.9766 94.2494 70.9686 94.249 70.9605 94.2481C65.2315 93.6285 59.859 92.866 54.9924 91.9807C54.8706 91.9588 54.7899 91.8423 54.8123 91.7205C54.8343 91.5986 54.9517 91.518 55.0726 91.5404C59.9285 92.4234 65.2906 93.1845 71.0084 93.8028C71.1312 93.8162 71.2203 93.9264 71.2069 94.0496C71.1943 94.1647 71.0976 94.2494 70.9847 94.2494Z" fill="#111111"/>
<g id="Group_86">
<g id="Group_87">
<path id="Vector_110" d="M28.9022 108.077L35.0855 110.058V101.242L28.9022 98.866V108.077Z" fill="#111111"/>
</g>
<path id="Vector_111" d="M35.3095 110.365L28.6782 108.241V93.145L35.3095 95.6937V110.365ZM29.1258 107.914L34.8611 109.751V96.001L29.1258 93.7973V107.914Z" fill="#F6EEE3"/>
<path id="Vector_112" d="M44.2206 113.118L37.5894 110.994V102.618L44.2206 105.167V113.118ZM38.0374 110.668L43.7726 112.504V105.475L38.0374 103.271V110.668Z" fill="#F6EEE3"/>
</g>
<g id="Group_88">
<path id="Vector_113" d="M226.049 55.6416V108.466C226.049 115.158 210.894 121.12 187.276 124.975C186.607 125.084 186.479 72.2803 187.047 72.188C210.796 68.3343 226.049 62.3553 226.049 55.6416Z" fill="#EB8D2E"/>
</g>
<g id="Group_89">
<path id="Vector_114" d="M209.605 77.6859C209.504 77.6859 209.412 77.6164 209.387 77.5138C209.359 77.3933 209.434 77.2724 209.554 77.2441C215.165 75.9109 219.371 74.3935 222.054 72.7332C222.159 72.6683 222.297 72.7005 222.362 72.8058C222.427 72.9111 222.395 73.0491 222.29 73.1145C219.566 74.7998 215.316 76.336 209.657 77.68C209.64 77.6841 209.622 77.6859 209.605 77.6859Z" fill="#111111"/>
<path id="Vector_115" d="M209.926 84.9028C209.824 84.9028 209.732 84.8333 209.708 84.7307C209.68 84.6102 209.754 84.4893 209.874 84.461C215.341 83.1623 219.44 81.6834 222.055 80.0657C222.16 80.0003 222.298 80.033 222.363 80.1383C222.428 80.2436 222.396 80.3815 222.29 80.4469C219.635 82.0898 215.492 83.5874 209.978 84.8969C209.96 84.901 209.943 84.9028 209.926 84.9028Z" fill="#F6EEE3"/>
</g>
</g>
</g>
<g id="Group_90">
<path id="Vector_116" opacity="0.69" d="M64.0415 114.004L55.3472 105.036C55.0887 104.769 55.0954 104.344 55.362 104.085C55.6276 103.827 56.0532 103.833 56.3122 104.1L64.0863 112.119L73.0759 103.685L84.1478 112.271C84.4407 112.498 84.4941 112.92 84.2669 113.213C84.0389 113.507 83.6169 113.56 83.3239 113.333L73.1588 105.45L64.0415 114.004Z" fill="#1B1F38"/>
<path id="Vector_117" d="M58.0845 104.568C58.0845 105.813 57.0752 106.823 55.8297 106.823C54.5843 106.823 53.575 105.813 53.575 104.568C53.575 103.323 54.5843 102.313 55.8297 102.313C57.0752 102.313 58.0845 103.323 58.0845 104.568Z" fill="#BCC5F6"/>
<path id="Vector_118" d="M75.3724 104.568C75.3724 105.813 74.363 106.823 73.1176 106.823C71.8721 106.823 70.8628 105.813 70.8628 104.568C70.8628 103.323 71.8721 102.313 73.1176 102.313C74.3626 102.313 75.3724 103.323 75.3724 104.568Z" fill="#BCC5F6"/>
<path id="Vector_119" d="M66.3183 112.802C66.3183 114.047 65.3089 115.057 64.0635 115.057C62.8181 115.057 61.8087 114.047 61.8087 112.802C61.8087 111.557 62.8181 110.547 64.0635 110.547C65.3089 110.547 66.3183 111.556 66.3183 112.802Z" fill="#5F73D3"/>
<path id="Vector_120" d="M85.9909 112.802C85.9909 114.047 84.9815 115.057 83.7361 115.057C82.4907 115.057 81.4813 114.047 81.4813 112.802C81.4813 111.557 82.4907 110.547 83.7361 110.547C84.9811 110.547 85.9909 111.556 85.9909 112.802Z" fill="#5F73D3"/>
</g>
<g id="Group_91">
<g id="Group_92">
<path id="Vector_121" d="M175.405 86.5H171.77V112.35H175.405V86.5Z" fill="#5C69AB"/>
<path id="Vector_122" d="M175.629 112.574H171.546V86.2756H175.629V112.574ZM171.994 112.126H175.181V86.7241H171.994V112.126Z" fill="#5C69AB"/>
</g>
<path id="Vector_123" d="M182.562 112.574H178.479V79.2749H182.562V112.574ZM178.926 112.126H182.113V79.7229H178.926V112.126Z" fill="#111111"/>
<path id="Vector_124" d="M196.969 112.574H192.886V79.2749H196.969V112.574ZM193.334 112.126H196.521V79.7229H193.334V112.126Z" fill="#111111"/>
<path id="Vector_125" opacity="0.46" d="M203.477 74.5171H199.842V112.35H203.477V74.5171Z" fill="white"/>
<g id="Group_93">
<path id="Vector_126" d="M203.477 87.6445H199.842V112.35H203.477V87.6445Z" fill="#5C69AB"/>
<path id="Vector_127" d="M203.701 112.574H199.618V87.4204H203.701V112.574ZM200.066 112.126H203.253V87.8684H200.066V112.126Z" fill="#5C69AB"/>
</g>
<g id="Group_94">
<path id="Vector_128" d="M189.744 89.1929H186.109V112.35H189.744V89.1929Z" fill="#5C69AB"/>
<path id="Vector_129" d="M189.968 112.574H185.885V88.9688H189.968V112.574ZM186.333 112.126H189.52V89.4172H186.333V112.126Z" fill="#5C69AB"/>
</g>
</g>
</g>
</g>
</g>
<defs>
<clipPath id="clip0_36_1254">
<rect width="246.4" height="224" fill="white" transform="translate(0.800049)"/>
</clipPath>
</defs>
</svg>
